<?xml version="1.0" encoding="utf-8"?>
<!-- Generator: Adobe Illustrator 27.3.1, SVG Export Plug-In . SVG Version: 6.00 Build 0)  -->
<svg version="1.1" id="Layer_1" xmlns="http://www.w3.org/2000/svg" xmlns:xlink="http://www.w3.org/1999/xlink" x="0px" y="0px"
	 viewBox="0 0 841.89 595.28" style="enable-background:new 0 0 841.89 595.28;" xml:space="preserve">
<style type="text/css">
	.st0{fill:#040000;}
</style>
<g>
	<path class="st0" d="M420.99,404.96c25.14,0,32.36-20.07,33.03-22.1h-66.06C388.62,384.89,395.85,404.96,420.99,404.96z"/>
	<path class="st0" d="M420.93,275.72h-16.49c1.65,5.17,2.65,11.2,3.13,17.72h26.83c0.48-6.52,1.48-12.55,3.13-17.72H420.93
		L420.93,275.72z"/>
	<path class="st0" d="M397.39,364.98h47.19c-1.91-5.31-3.68-11.39-5.19-17.89h-36.82C401.06,353.6,399.3,359.67,397.39,364.98z"/>
	<path class="st0" d="M407.68,311.33c-0.3,5.91-0.91,11.94-1.76,17.88h30.13c-0.85-5.94-1.46-11.97-1.76-17.88H407.68z"/>
	<path class="st0" d="M437.53,275.72h43.02c0,0,3.2-6.37,5.15-17.83c-7.86,0-18.97,0-28.37,0
		C445.08,257.89,439.75,266.49,437.53,275.72z"/>
	<path class="st0" d="M436.35,204.41c-0.39-1.13-4.88-13.28-15.37-13.28c-10.49,0-14.97,12.15-15.37,13.28h-44.2
		c0,0-3.22,6.51-5.17,18.01c8.1,0,19.17,0,28.28,0c12.25,0,18.83-8.6,21.05-17.83h15.35h0h15.34c2.22,9.23,8.8,17.83,21.05,17.83
		c9.4,0,20.52,0,28.38,0c-1.95-11.5-5.17-18.01-5.17-18.01H436.35z"/>
	<path class="st0" d="M404.39,275.72c-2.22-9.23-7.6-17.83-19.85-17.83c-9.11,0-20.16,0-28.26,0c1.95,11.45,5.15,17.83,5.15,17.83
		H404.39z"/>
	<path d="M447.43,231.96c-7.08-2.19-12.92-6.71-17-13.14v9.3l17,17V231.96z"/>
	<path d="M398.74,232.46l14.06,14.19h19.43l0.09,10c2.98-3.78,6.64-6.72,10.85-8.71l-14.29-14.29h-19.46v-8.93
		C406.41,228.04,402.81,230.65,398.74,232.46z"/>
	<path d="M394.43,248.4c7.29,2.35,13.12,7.42,16.96,14.74l-0.1-10.93l-16.86-17V248.4z"/>
</g>
</svg>
